<?xml version="1.0" encoding="UTF-8"?> <svg xmlns="http://www.w3.org/2000/svg" id="Layer_1" data-name="Layer 1" viewBox="0 0 381.98 74"><defs><style>.cls-1{fill:#fff;}</style></defs><path class="cls-1" d="M38.26,13.73,22,18.08a27.58,27.58,0,0,1-21,22L5.14,55.34A43.38,43.38,0,0,0,38.26,13.73Z"></path><path class="cls-1" d="M58.06,13.19A27.41,27.41,0,0,1,59.27,5.1L44,1A43.42,43.42,0,0,0,63.45,50.48l4.36-16.27A27.48,27.48,0,0,1,58.06,13.19Z"></path><path class="cls-1" d="M40.24,48.39A43.08,43.08,0,0,0,19,53.93L30.94,65.82A27.57,27.57,0,0,1,60.41,73l11.2-11.19A43.24,43.24,0,0,0,40.24,48.39Z"></path><path class="cls-1" d="M365.05,13.74h-32.7V55.35h10.7V44.23h22C374.5,44.23,381,38.29,381,29S374.5,13.74,365.05,13.74Zm-3,21.52h-19V22.72h19c3.21,0,8.21,0,8.21,6.3S365.28,35.26,362.07,35.26ZM308.14,13.74H275.45V55.35h10.7V44.23h22c9.45,0,15.93-5.94,15.93-15.21S317.59,13.74,308.14,13.74Zm-3,21.52h-19V22.72h19c3.21,0,8.2,0,8.2,6.3S308.38,35.26,305.17,35.26ZM232.39,13.73,210.94,55.34H222.7l4.46-8.86h24.91l4.46,8.86h11.82L246.84,13.73Zm-1.25,24.79,8.5-16.88,8.45,16.88ZM163.3,41c0,4.39,3.57,6.41,17.12,6.41,11.23,0,14.62-1.24,14.62-4.51,0-3.45-2.38-4-15.87-4.7-18.13-.83-25.32-3.68-25.32-13,0-9.15,9.33-12.06,24.9-12.06S204,17.06,204,27.34h-10.7c0-4.57-4.58-5.7-15.69-5.7-10.53,0-13,1-13,4.1s2.49,3.8,14.62,4.52c16.41.89,26.57,1.78,26.57,12.3,0,11.12-10.52,13.37-25.92,13.37C162.76,55.93,152.6,53,152.6,41ZM111.93,13.73,90.48,55.34h11.77l4.45-8.86h24.91l4.46,8.86h11.82L126.38,13.73Zm-1.24,24.79,8.5-16.88,8.44,16.88Z"></path></svg> 